<svg width="595" height="40" viewBox="0 0 595 40" fill="none" xmlns="http://www.w3.org/2000/svg">
<path fill-rule="evenodd" clip-rule="evenodd" d="M632 2.10526L604.458 5.26316C576.917 8.42105 521.833 14.7368 466.75 15.7895C411.667 16.8421 356.583 12.6316 301.5 8.42105C246.417 4.21053 191.333 0 136.25 0C81.1666 0 26.0833 4.21053 -1.45837 6.31579L-29 8.42105V40H-1.45837C26.0833 40 81.1666 40 136.25 40C191.333 40 246.417 40 301.5 40C356.583 40 411.667 40 466.75 40C521.833 40 576.917 40 604.458 40H632V2.10526Z" fill="#0248AC"/>
</svg>
