<svg width="116" height="37" viewBox="0 0 116 37" fill="none" xmlns="http://www.w3.org/2000/svg">
<path d="M41.699 19.2C40.5923 19.2 39.6323 19.0267 38.819 18.68C38.019 18.3333 37.4057 17.88 36.979 17.32C36.5523 16.7467 36.3257 16.1333 36.299 15.48C36.299 15.3733 36.339 15.28 36.419 15.2C36.5123 15.1067 36.619 15.06 36.739 15.06H37.759C38.0123 15.06 38.1857 15.1933 38.279 15.46C38.399 16.02 38.739 16.5 39.299 16.9C39.8723 17.3 40.6723 17.5 41.699 17.5C42.8057 17.5 43.639 17.3067 44.199 16.92C44.759 16.52 45.039 15.9667 45.039 15.26C45.039 14.8067 44.899 14.44 44.619 14.16C44.3523 13.88 43.9523 13.6333 43.419 13.42C42.8857 13.2067 42.0857 12.94 41.019 12.62C39.979 12.3267 39.1523 12.0133 38.539 11.68C37.9257 11.3467 37.4657 10.9333 37.159 10.44C36.8523 9.94667 36.699 9.32667 36.699 8.58C36.699 7.86 36.8923 7.21333 37.279 6.64C37.679 6.06667 38.2457 5.62 38.979 5.3C39.7123 4.96667 40.5857 4.8 41.599 4.8C42.639 4.8 43.5323 4.98667 44.279 5.36C45.0257 5.72 45.5923 6.18 45.979 6.74C46.3657 7.3 46.5723 7.86 46.599 8.42C46.599 8.52667 46.559 8.62 46.479 8.7C46.4123 8.78 46.3123 8.82 46.179 8.82H45.119C44.839 8.82 44.6657 8.69333 44.599 8.44C44.519 7.88 44.2057 7.42 43.659 7.06C43.1123 6.68667 42.4257 6.5 41.599 6.5C40.6923 6.5 39.979 6.67333 39.459 7.02C38.939 7.36667 38.679 7.88 38.679 8.56C38.679 9.01333 38.799 9.38667 39.039 9.68C39.2923 9.97333 39.6723 10.2333 40.179 10.46C40.6857 10.6733 41.4257 10.92 42.399 11.2C43.5323 11.5067 44.4257 11.8267 45.079 12.16C45.7323 12.48 46.219 12.8867 46.539 13.38C46.859 13.86 47.019 14.4733 47.019 15.22C47.019 16.46 46.539 17.4333 45.579 18.14C44.619 18.8467 43.3257 19.2 41.699 19.2ZM54.1004 19C53.9671 19 53.8537 18.96 53.7604 18.88C53.6804 18.7867 53.6404 18.6733 53.6404 18.54V5.48C53.6404 5.33333 53.6804 5.22 53.7604 5.14C53.8537 5.04667 53.9671 5 54.1004 5H55.1204C55.2671 5 55.3804 5.04667 55.4604 5.14C55.5537 5.22 55.6004 5.33333 55.6004 5.48V11H62.4804V5.48C62.4804 5.33333 62.5204 5.22 62.6004 5.14C62.6937 5.04667 62.8071 5 62.9404 5H63.9604C64.1071 5 64.2204 5.04667 64.3004 5.14C64.3937 5.22 64.4404 5.33333 64.4404 5.48V18.54C64.4404 18.6733 64.3937 18.7867 64.3004 18.88C64.2071 18.96 64.0937 19 63.9604 19H62.9404C62.8071 19 62.6937 18.96 62.6004 18.88C62.5204 18.7867 62.4804 18.6733 62.4804 18.54V12.8H55.6004V18.54C55.6004 18.6733 55.5537 18.7867 55.4604 18.88C55.3671 18.96 55.2537 19 55.1204 19H54.1004ZM72.3777 19C72.2444 19 72.1311 18.96 72.0377 18.88C71.9577 18.7867 71.9177 18.6733 71.9177 18.54V5.48C71.9177 5.33333 71.9577 5.22 72.0377 5.14C72.1311 5.04667 72.2444 5 72.3777 5H77.2577C78.7911 5 79.9911 5.36 80.8577 6.08C81.7244 6.8 82.1577 7.84 82.1577 9.2C82.1577 10.2133 81.9044 11.0467 81.3977 11.7C80.9044 12.3533 80.2044 12.8067 79.2977 13.06L82.3777 18.38C82.4177 18.46 82.4377 18.5333 82.4377 18.6C82.4377 18.7067 82.3911 18.8 82.2977 18.88C82.2177 18.96 82.1244 19 82.0177 19H81.0577C80.8577 19 80.6977 18.9533 80.5777 18.86C80.4711 18.7667 80.3711 18.6333 80.2777 18.46L77.3777 13.38H73.8777V18.54C73.8777 18.6733 73.8311 18.7867 73.7377 18.88C73.6444 18.96 73.5311 19 73.3977 19H72.3777ZM77.1777 11.68C79.1644 11.68 80.1577 10.8467 80.1577 9.18C80.1577 7.51333 79.1644 6.68 77.1777 6.68H73.8777V11.68H77.1777ZM89.4832 19C89.3499 19 89.2365 18.96 89.1432 18.88C89.0632 18.7867 89.0232 18.6733 89.0232 18.54V5.48C89.0232 5.33333 89.0632 5.22 89.1432 5.14C89.2365 5.04667 89.3499 5 89.4832 5H97.7432C97.8765 5 97.9832 5.04667 98.0632 5.14C98.1565 5.22 98.2032 5.33333 98.2032 5.48V6.24C98.2032 6.37333 98.1632 6.48667 98.0832 6.58C98.0032 6.66 97.8899 6.7 97.7432 6.7H90.9432V11.08H97.3032C97.4365 11.08 97.5432 11.1267 97.6232 11.22C97.7165 11.3 97.7632 11.4133 97.7632 11.56V12.3C97.7632 12.4333 97.7165 12.5467 97.6232 12.64C97.5432 12.72 97.4365 12.76 97.3032 12.76H90.9432V17.3H97.9032C98.0499 17.3 98.1632 17.34 98.2432 17.42C98.3232 17.5 98.3632 17.6133 98.3632 17.76V18.54C98.3632 18.6733 98.3165 18.7867 98.2232 18.88C98.1432 18.96 98.0365 19 97.9032 19H89.4832ZM105.612 19C105.479 19 105.365 18.96 105.272 18.88C105.192 18.7867 105.152 18.6733 105.152 18.54V5.48C105.152 5.33333 105.192 5.22 105.272 5.14C105.365 5.04667 105.479 5 105.612 5H113.872C114.005 5 114.112 5.04667 114.192 5.14C114.285 5.22 114.332 5.33333 114.332 5.48V6.24C114.332 6.37333 114.292 6.48667 114.212 6.58C114.132 6.66 114.019 6.7 113.872 6.7H107.072V11.08H113.432C113.565 11.08 113.672 11.1267 113.752 11.22C113.845 11.3 113.892 11.4133 113.892 11.56V12.3C113.892 12.4333 113.845 12.5467 113.752 12.64C113.672 12.72 113.565 12.76 113.432 12.76H107.072V17.3H114.032C114.179 17.3 114.292 17.34 114.372 17.42C114.452 17.5 114.492 17.6133 114.492 17.76V18.54C114.492 18.6733 114.445 18.7867 114.352 18.88C114.272 18.96 114.165 19 114.032 19H105.612Z" fill="#0248AC"/>
<path d="M67.851 34C67.7843 34 67.7277 33.9767 67.681 33.93C67.6343 33.8833 67.611 33.8267 67.611 33.76V28.23H65.761C65.6943 28.23 65.6377 28.2067 65.591 28.16C65.5443 28.1133 65.521 28.0567 65.521 27.99V27.25C65.521 27.1767 65.541 27.1167 65.581 27.07C65.6277 27.0233 65.6877 27 65.761 27H70.861C70.9343 27 70.9943 27.0233 71.041 27.07C71.0877 27.1167 71.111 27.1767 71.111 27.25V27.99C71.111 28.0567 71.0877 28.1133 71.041 28.16C70.9943 28.2067 70.9343 28.23 70.861 28.23H69.021V33.76C69.021 33.8267 68.9977 33.8833 68.951 33.93C68.9043 33.9767 68.8443 34 68.771 34H67.851ZM77.2157 34.1C76.3157 34.1 75.6157 33.87 75.1157 33.41C74.6157 32.95 74.3657 32.2533 74.3657 31.32V27.25C74.3657 27.1767 74.3857 27.1167 74.4257 27.07C74.4724 27.0233 74.5324 27 74.6057 27H75.5157C75.589 27 75.6457 27.0233 75.6857 27.07C75.7324 27.1167 75.7557 27.1767 75.7557 27.25V31.32C75.7557 31.8533 75.8824 32.2567 76.1357 32.53C76.389 32.7967 76.749 32.93 77.2157 32.93C77.6824 32.93 78.039 32.7967 78.2857 32.53C78.539 32.2567 78.6657 31.8533 78.6657 31.32V27.25C78.6657 27.1767 78.689 27.1167 78.7357 27.07C78.7824 27.0233 78.8424 27 78.9157 27H79.8157C79.889 27 79.9457 27.0233 79.9857 27.07C80.0324 27.1167 80.0557 27.1767 80.0557 27.25V31.32C80.0557 32.2533 79.8057 32.95 79.3057 33.41C78.8124 33.87 78.1157 34.1 77.2157 34.1ZM85.6346 34C85.5679 34 85.5113 33.9767 85.4646 33.93C85.4179 33.8833 85.3946 33.8267 85.3946 33.76V28.23H83.5446C83.4779 28.23 83.4213 28.2067 83.3746 28.16C83.3279 28.1133 83.3046 28.0567 83.3046 27.99V27.25C83.3046 27.1767 83.3246 27.1167 83.3646 27.07C83.4113 27.0233 83.4713 27 83.5446 27H88.6446C88.7179 27 88.7779 27.0233 88.8246 27.07C88.8713 27.1167 88.8946 27.1767 88.8946 27.25V27.99C88.8946 28.0567 88.8713 28.1133 88.8246 28.16C88.7779 28.2067 88.7179 28.23 88.6446 28.23H86.8046V33.76C86.8046 33.8267 86.7813 33.8833 86.7346 33.93C86.6879 33.9767 86.6279 34 86.5546 34H85.6346ZM94.7723 34.1C93.8657 34.1 93.159 33.87 92.6523 33.41C92.1457 32.95 91.879 32.2667 91.8523 31.36C91.8457 31.1667 91.8423 30.8833 91.8423 30.51C91.8423 30.13 91.8457 29.8433 91.8523 29.65C91.879 28.7633 92.1523 28.0833 92.6723 27.61C93.1923 27.1367 93.8923 26.9 94.7723 26.9C95.6523 26.9 96.3523 27.1367 96.8723 27.61C97.399 28.0833 97.6757 28.7633 97.7023 29.65C97.7157 30.0367 97.7223 30.3233 97.7223 30.51C97.7223 30.69 97.7157 30.9733 97.7023 31.36C97.669 32.2667 97.399 32.95 96.8923 33.41C96.3857 33.87 95.679 34.1 94.7723 34.1ZM94.7723 32.95C95.219 32.95 95.5757 32.8167 95.8423 32.55C96.109 32.2767 96.2523 31.8633 96.2723 31.31C96.2857 30.91 96.2923 30.64 96.2923 30.5C96.2923 30.3467 96.2857 30.0767 96.2723 29.69C96.2523 29.1367 96.109 28.7267 95.8423 28.46C95.5757 28.1867 95.219 28.05 94.7723 28.05C94.3323 28.05 93.979 28.1867 93.7123 28.46C93.4457 28.7267 93.3023 29.1367 93.2823 29.69C93.2757 29.8833 93.2723 30.1533 93.2723 30.5C93.2723 30.84 93.2757 31.11 93.2823 31.31C93.3023 31.8633 93.4423 32.2767 93.7023 32.55C93.969 32.8167 94.3257 32.95 94.7723 32.95ZM101.575 34C101.509 34 101.452 33.9767 101.405 33.93C101.359 33.8833 101.335 33.8267 101.335 33.76V27.25C101.335 27.1767 101.355 27.1167 101.395 27.07C101.442 27.0233 101.502 27 101.575 27H104.165C104.979 27 105.615 27.19 106.075 27.57C106.542 27.95 106.775 28.49 106.775 29.19C106.775 29.6767 106.655 30.0867 106.415 30.42C106.182 30.7467 105.855 30.9833 105.435 31.13L106.895 33.68C106.915 33.72 106.925 33.7567 106.925 33.79C106.925 33.85 106.902 33.9 106.855 33.94C106.815 33.98 106.769 34 106.715 34H105.805C105.699 34 105.615 33.9767 105.555 33.93C105.502 33.8833 105.452 33.8167 105.405 33.73L104.115 31.36H102.725V33.76C102.725 33.8267 102.702 33.8833 102.655 33.93C102.615 33.9767 102.559 34 102.485 34H101.575ZM104.135 30.23C104.535 30.23 104.835 30.14 105.035 29.96C105.242 29.78 105.345 29.52 105.345 29.18C105.345 28.84 105.242 28.5767 105.035 28.39C104.835 28.2033 104.535 28.11 104.135 28.11H102.725V30.23H104.135ZM112.794 34.1C112.201 34.1 111.691 34.01 111.264 33.83C110.837 33.65 110.514 33.4133 110.294 33.12C110.074 32.8267 109.957 32.51 109.944 32.17C109.944 32.11 109.964 32.06 110.004 32.02C110.044 31.98 110.094 31.96 110.154 31.96H111.044C111.124 31.96 111.184 31.9767 111.224 32.01C111.271 32.0367 111.314 32.0833 111.354 32.15C111.421 32.3767 111.574 32.5667 111.814 32.72C112.054 32.8733 112.381 32.95 112.794 32.95C113.267 32.95 113.624 32.8733 113.864 32.72C114.104 32.56 114.224 32.34 114.224 32.06C114.224 31.8733 114.161 31.72 114.034 31.6C113.914 31.48 113.731 31.3767 113.484 31.29C113.244 31.2033 112.884 31.0967 112.404 30.97C111.617 30.7833 111.041 30.5367 110.674 30.23C110.314 29.9167 110.134 29.4733 110.134 28.9C110.134 28.5133 110.237 28.17 110.444 27.87C110.657 27.57 110.961 27.3333 111.354 27.16C111.754 26.9867 112.217 26.9 112.744 26.9C113.291 26.9 113.764 26.9967 114.164 27.19C114.564 27.3833 114.867 27.6267 115.074 27.92C115.287 28.2067 115.401 28.4933 115.414 28.78C115.414 28.84 115.394 28.89 115.354 28.93C115.314 28.97 115.264 28.99 115.204 28.99H114.274C114.134 28.99 114.037 28.9267 113.984 28.8C113.944 28.5867 113.811 28.41 113.584 28.27C113.357 28.1233 113.077 28.05 112.744 28.05C112.371 28.05 112.077 28.12 111.864 28.26C111.651 28.4 111.544 28.6033 111.544 28.87C111.544 29.0567 111.597 29.21 111.704 29.33C111.811 29.45 111.977 29.5567 112.204 29.65C112.437 29.7433 112.771 29.8467 113.204 29.96C113.791 30.0933 114.257 30.2433 114.604 30.41C114.957 30.5767 115.217 30.7867 115.384 31.04C115.551 31.2933 115.634 31.6167 115.634 32.01C115.634 32.4367 115.514 32.81 115.274 33.13C115.041 33.4433 114.707 33.6833 114.274 33.85C113.847 34.0167 113.354 34.1 112.794 34.1Z" fill="#0248AC"/>
<path d="M36.02 34C35.9533 34 35.8967 33.9767 35.85 33.93C35.8033 33.8833 35.78 33.8267 35.78 33.76V27.25C35.78 27.1767 35.8 27.1167 35.84 27.07C35.8867 27.0233 35.9467 27 36.02 27H38.61C39.4233 27 40.06 27.19 40.52 27.57C40.9867 27.95 41.22 28.49 41.22 29.19C41.22 29.6767 41.1 30.0867 40.86 30.42C40.6267 30.7467 40.3 30.9833 39.88 31.13L41.34 33.68C41.36 33.72 41.37 33.7567 41.37 33.79C41.37 33.85 41.3467 33.9 41.3 33.94C41.26 33.98 41.2133 34 41.16 34H40.25C40.1433 34 40.06 33.9767 40 33.93C39.9467 33.8833 39.8967 33.8167 39.85 33.73L38.56 31.36H37.17V33.76C37.17 33.8267 37.1467 33.8833 37.1 33.93C37.06 33.9767 37.0033 34 36.93 34H36.02ZM38.58 30.23C38.98 30.23 39.28 30.14 39.48 29.96C39.6867 29.78 39.79 29.52 39.79 29.18C39.79 28.84 39.6867 28.5767 39.48 28.39C39.28 28.2033 38.98 28.11 38.58 28.11H37.17V30.23H38.58ZM47.2385 34.1C46.6452 34.1 46.1352 34.01 45.7085 33.83C45.2818 33.65 44.9585 33.4133 44.7385 33.12C44.5185 32.8267 44.4018 32.51 44.3885 32.17C44.3885 32.11 44.4085 32.06 44.4485 32.02C44.4885 31.98 44.5385 31.96 44.5985 31.96H45.4885C45.5685 31.96 45.6285 31.9767 45.6685 32.01C45.7152 32.0367 45.7585 32.0833 45.7985 32.15C45.8652 32.3767 46.0185 32.5667 46.2585 32.72C46.4985 32.8733 46.8252 32.95 47.2385 32.95C47.7118 32.95 48.0685 32.8733 48.3085 32.72C48.5485 32.56 48.6685 32.34 48.6685 32.06C48.6685 31.8733 48.6052 31.72 48.4785 31.6C48.3585 31.48 48.1752 31.3767 47.9285 31.29C47.6885 31.2033 47.3285 31.0967 46.8485 30.97C46.0618 30.7833 45.4852 30.5367 45.1185 30.23C44.7585 29.9167 44.5785 29.4733 44.5785 28.9C44.5785 28.5133 44.6818 28.17 44.8885 27.87C45.1018 27.57 45.4052 27.3333 45.7985 27.16C46.1985 26.9867 46.6618 26.9 47.1885 26.9C47.7352 26.9 48.2085 26.9967 48.6085 27.19C49.0085 27.3833 49.3118 27.6267 49.5185 27.92C49.7318 28.2067 49.8452 28.4933 49.8585 28.78C49.8585 28.84 49.8385 28.89 49.7985 28.93C49.7585 28.97 49.7085 28.99 49.6485 28.99H48.7185C48.5785 28.99 48.4818 28.9267 48.4285 28.8C48.3885 28.5867 48.2552 28.41 48.0285 28.27C47.8018 28.1233 47.5218 28.05 47.1885 28.05C46.8152 28.05 46.5218 28.12 46.3085 28.26C46.0952 28.4 45.9885 28.6033 45.9885 28.87C45.9885 29.0567 46.0418 29.21 46.1485 29.33C46.2552 29.45 46.4218 29.5567 46.6485 29.65C46.8818 29.7433 47.2152 29.8467 47.6485 29.96C48.2352 30.0933 48.7018 30.2433 49.0485 30.41C49.4018 30.5767 49.6618 30.7867 49.8285 31.04C49.9952 31.2933 50.0785 31.6167 50.0785 32.01C50.0785 32.4367 49.9585 32.81 49.7185 33.13C49.4852 33.4433 49.1518 33.6833 48.7185 33.85C48.2918 34.0167 47.7985 34.1 47.2385 34.1ZM56.2245 34.1C55.3045 34.1 54.5912 33.8633 54.0845 33.39C53.5845 32.9167 53.3179 32.25 53.2845 31.39C53.2779 31.21 53.2745 30.9167 53.2745 30.51C53.2745 30.0967 53.2779 29.7967 53.2845 29.61C53.3179 28.7567 53.5879 28.0933 54.0945 27.62C54.6079 27.14 55.3179 26.9 56.2245 26.9C56.8179 26.9 57.3345 27.0033 57.7745 27.21C58.2145 27.41 58.5545 27.6867 58.7945 28.04C59.0345 28.3867 59.1612 28.78 59.1745 29.22V29.24C59.1745 29.2933 59.1512 29.34 59.1045 29.38C59.0645 29.4133 59.0179 29.43 58.9645 29.43H58.0145C57.9345 29.43 57.8745 29.4133 57.8345 29.38C57.7945 29.3467 57.7612 29.2833 57.7345 29.19C57.6279 28.77 57.4512 28.4767 57.2045 28.31C56.9579 28.1367 56.6279 28.05 56.2145 28.05C55.2545 28.05 54.7545 28.5867 54.7145 29.66C54.7079 29.84 54.7045 30.1167 54.7045 30.49C54.7045 30.8633 54.7079 31.1467 54.7145 31.34C54.7545 32.4133 55.2545 32.95 56.2145 32.95C56.6279 32.95 56.9579 32.8633 57.2045 32.69C57.4579 32.5167 57.6345 32.2233 57.7345 31.81C57.7545 31.7167 57.7845 31.6533 57.8245 31.62C57.8712 31.5867 57.9345 31.57 58.0145 31.57H58.9645C59.0245 31.57 59.0745 31.59 59.1145 31.63C59.1612 31.67 59.1812 31.72 59.1745 31.78C59.1612 32.22 59.0345 32.6167 58.7945 32.97C58.5545 33.3167 58.2145 33.5933 57.7745 33.8C57.3345 34 56.8179 34.1 56.2245 34.1Z" fill="#FF7B00"/>
<path d="M0.302309 30.2668C0.792783 29.6241 1.28642 29.1188 1.97268 28.7402C2.83398 28.265 3.75919 28.1116 4.72919 28.1447C5.37804 28.1669 5.57932 27.9397 5.71075 27.505C5.86468 26.9956 5.98677 25.8633 5.65679 25.0084C5.59021 24.8361 5.52497 24.6631 5.45251 24.4731C7.8652 24.9915 13.1153 31.8488 13.4896 35.0176C13.1139 34.6594 12.7696 34.2644 12.3759 33.9271C10.1908 32.0553 7.73238 30.7464 4.83972 30.3908C3.42854 30.2173 1.75678 30.4416 0.651575 30.7119C0.217118 30.7982 0.524206 30.7375 0 30.8429C0.107086 30.5502 0.109587 30.5205 0.302309 30.2668Z" fill="#0248AC"/>
<path d="M13.7892 20.9415C13.6317 21.5885 13.3527 22.2216 13.3508 22.8556C13.3471 24.0009 13.4703 25.1516 13.6114 26.2913C13.8007 27.8195 14.1007 29.3346 14.2711 30.8645C14.4096 32.1078 14.2449 33.3493 13.9521 34.5869C13.4112 32.3232 12.5221 30.2235 11.1969 28.3107C9.88115 26.4116 8.27691 24.791 6.41016 23.3199C7.0265 23.0609 7.58594 23.1472 8.13498 23.1979C9.17345 23.2937 10.0858 23.7439 10.9799 24.2449C11.5449 24.5616 11.5719 24.5399 11.6724 23.9142C11.8614 22.7377 12.7715 21.4618 13.7892 20.9415Z" fill="#FF7B00"/>
<path d="M19.5377 12.0031C18.6569 13.6908 17.2963 14.6174 15.3528 14.6093C13.4883 14.6015 12.205 12.6911 12.8332 10.8556C13.3787 9.26169 14.4275 8.01374 15.59 6.84675C16.0535 6.38152 16.5609 5.95962 17.0203 5.49061C17.9523 4.53921 18.2578 3.41555 17.8777 2.12326C17.8672 2.08759 17.8722 2.0473 17.8695 2.00008C20.9088 4.42363 20.992 8.21722 18.6511 11.1178C18.8651 10.3377 18.9607 9.61741 18.7378 8.89492C18.663 8.65255 18.5824 8.40763 18.4672 8.18293C18.0353 7.34026 17.2004 7.07033 16.3596 7.50323C14.8159 8.29789 14.0852 9.66603 13.9622 11.3056C13.8274 13.1047 15.5432 14.3497 17.5276 13.5862C18.3517 13.2691 18.9541 12.649 19.5377 12.0031Z" fill="#0248AC"/>
<path d="M14.7891 34.543C15.1266 33.976 15.3771 33.6026 15.7927 33.0946C17.227 31.3412 19.0483 30.079 21.0641 29.0833C21.8805 28.68 22.7059 28.2944 23.5352 27.9181C23.8052 27.7955 23.8568 27.6727 23.7166 27.3987C22.9547 25.9082 22.2095 24.4091 21.4626 22.9109C21.4076 22.8006 21.3491 22.7238 21.2736 22.6632C21.2136 22.6149 21.1264 22.5832 21.0073 22.589C20.9821 22.5903 20.9396 22.5892 20.8282 22.6165C20.778 22.6289 19.2468 23.1066 19.2468 23.1066C19.2048 23.0633 19.189 23.037 19.1207 22.949C19.1207 22.949 20.4784 22.2551 20.5984 22.2028C20.9335 22.0568 21.2564 21.8931 21.6065 21.8588C21.7155 21.8481 21.9221 22.022 21.9962 22.1596C22.4916 23.0788 22.9674 24.0086 23.4414 24.9391C23.9156 25.8701 24.3736 26.8093 24.8534 27.7374C24.9987 28.0183 24.9733 28.1484 24.6458 28.2572C22.9505 28.8207 21.3184 29.5311 19.7655 30.4195C17.9258 31.4719 17.5126 31.6267 15.4118 33.8888" fill="#FF7B00"/>
<path d="M17.9624 21.9736C18.304 21.7799 18.5594 21.6956 18.6777 21.6956C18.7801 21.6956 18.8996 21.73 18.9636 21.8479C19.3907 22.6361 19.8045 23.4349 20.2171 24.2345C20.6299 25.0344 21.0316 25.8428 21.4482 26.6397C21.5743 26.881 21.5661 26.9985 21.3392 27.1159C20.1645 27.7236 19.0466 28.4584 17.9993 29.3468C16.7586 30.3993 15.7556 31.7344 14.9245 33.2767C14.8721 33.3742 14.5458 34.0314 14.4551 34.3721C14.4328 34.3565 14.6075 33.6679 14.6732 33.4867C14.7362 33.3054 15.0917 32.4568 15.3511 31.9782C16.2463 30.3265 17.4575 29.0882 18.8292 28.0753C19.3847 27.6651 19.948 27.2699 20.5149 26.8829C20.6994 26.757 20.727 26.6443 20.6051 26.4089C19.9423 25.1283 19.2907 23.839 18.6382 22.5507C18.5541 22.3846 18.4862 22.2749 18.2922 22.3315C18.1986 22.3588 15.9344 23.1695 15.2329 23.8631C15.8083 23.1774 17.7711 22.0581 17.9624 21.9736Z" fill="#FF7B00"/>
<path d="M16.8331 20.7686C15.9983 19.7902 15.177 18.7996 14.3201 17.8408C13.1118 16.4887 11.9105 15.1356 11.0302 13.5335C10.2042 12.0302 10.3839 10.2174 11.599 8.99601C12.3418 8.24929 13.2056 7.62276 14.017 6.94444C14.062 6.90683 14.1241 6.88971 14.1062 6.89855C13.6483 7.38295 13.1168 7.89163 12.6479 8.45254C11.7215 9.56069 11.2742 10.8508 11.634 12.2708C11.8062 12.9508 12.2211 13.5877 12.6093 14.1906C13.3834 15.3932 14.4388 16.3477 15.4406 17.3654C16.4822 18.4236 17.4147 19.513 17.5636 19.7973C18.4623 21.2633 18.2947 24.5679 18.2364 24.2846C17.6732 21.5523 17.4038 21.6255 16.8331 20.7686Z" fill="#0248AC"/>
<path d="M25.1802 32.0047C24.7978 33.2126 24.8162 33.2781 25.8611 34.1171C22.1198 33.7727 18.789 34.1362 15.1523 35.3027C16.9234 34.0732 22.8907 31.6497 25.1802 32.0047Z" fill="#0248AC"/>
<path d="M23.1302 23.5966C22.9121 23.6442 22.2854 23.8925 22.152 23.8662C22.0548 23.847 21.8992 23.441 21.9418 23.4248C21.9953 23.4046 23.3977 22.8463 23.5079 22.8021C23.8758 22.6551 23.9757 22.7461 24.4466 23.3529C24.8007 23.8268 27.2503 28.2268 27.544 28.6977C27.7582 29.228 28.0938 29.486 27.1656 29.6645C25.0526 30.1954 21.8115 31.1389 19.7202 32.0823C17.7426 32.9743 16.3746 34.0763 15.4936 34.6832C15.3468 34.7841 15.2992 34.8309 15.1133 34.9492C16.407 33.7658 17.6274 32.6635 19.1986 31.7348C21.1326 30.5917 23.3264 29.8567 25.5068 29.1536C25.6702 29.1009 25.8307 29.041 25.9888 28.9759C26.5875 28.7292 26.4929 28.5506 26.2934 28.1378C26.2371 28.0632 23.9189 23.8968 23.8344 23.7838C23.617 23.4931 23.5657 23.4892 23.1302 23.5966Z" fill="#FF7B00"/>
<path d="M17.6679 10.6257C17.5838 11.3156 17.2772 12.0417 16.5338 12.4947C15.7663 12.9624 15.0563 12.5653 15.0287 11.6707C15.0029 10.8364 15.3566 10.1672 15.9867 9.642C16.3195 9.36451 16.699 9.20094 17.1355 9.39079C17.4853 9.54298 17.6764 9.95382 17.6679 10.6257Z" fill="#FF7B00"/>
<path d="M16.5352 16.1613C18.3932 15.6814 19.5888 14.531 20.5365 13.0753C21.5091 11.5811 21.757 9.95579 21.3908 8.22389C22.2387 9.93557 21.8226 11.6293 21.1316 13.2292C20.3269 15.0924 18.3516 16.2914 16.5352 16.1613Z" fill="#0248AC"/>
<path d="M11.8703 21.3424C11.8703 22.2363 11.1455 22.9609 10.2516 22.9609C9.35752 22.9609 8.63281 22.2363 8.63281 21.3424C8.63281 20.4485 9.35752 19.7239 10.2516 19.7239C11.1455 19.7239 11.8703 20.4485 11.8703 21.3424Z" fill="#FF7B00"/>
<path d="M4.95913 25.6594C4.95913 26.7051 4.11133 27.5527 3.06547 27.5527C2.01962 27.5527 1.17188 26.7051 1.17188 25.6594C1.17188 24.6137 2.01962 23.766 3.06547 23.766C4.11133 23.766 4.95913 24.6137 4.95913 25.6594Z" fill="#0248AC"/>
<path d="M3.34883 32.0047C3.73127 33.2126 3.71288 33.2781 2.66797 34.1171C6.4092 33.7727 9.74005 34.1362 13.3767 35.3027C11.6057 34.0732 5.63832 31.6497 3.34883 32.0047Z" fill="#0248AC"/>
</svg>
