<svg width="160" height="49" viewBox="0 0 160 49" fill="none" xmlns="http://www.w3.org/2000/svg">
<path d="M56.1786 27.28C54.6292 27.28 53.2852 27.0373 52.1466 26.552C51.0266 26.0667 50.1679 25.432 49.5706 24.648C48.9732 23.8453 48.6559 22.9867 48.6186 22.072C48.6186 21.9227 48.6746 21.792 48.7866 21.68C48.9172 21.5493 49.0666 21.484 49.2346 21.484H50.6626C51.0172 21.484 51.2599 21.6707 51.3906 22.044C51.5586 22.828 52.0346 23.5 52.8186 24.06C53.6212 24.62 54.7412 24.9 56.1786 24.9C57.7279 24.9 58.8946 24.6293 59.6786 24.088C60.4626 23.528 60.8546 22.7533 60.8546 21.764C60.8546 21.1293 60.6586 20.616 60.2666 20.224C59.8932 19.832 59.3332 19.4867 58.5866 19.188C57.8399 18.8893 56.7199 18.516 55.2266 18.068C53.7706 17.6573 52.6132 17.2187 51.7546 16.752C50.8959 16.2853 50.2519 15.7067 49.8226 15.016C49.3932 14.3253 49.1786 13.4573 49.1786 12.412C49.1786 11.404 49.4492 10.4987 49.9906 9.696C50.5506 8.89333 51.3439 8.268 52.3706 7.82C53.3972 7.35333 54.6199 7.12 56.0386 7.12C57.4946 7.12 58.7452 7.38133 59.7906 7.904C60.8359 8.408 61.6292 9.052 62.1706 9.836C62.7119 10.62 63.0012 11.404 63.0386 12.188C63.0386 12.3373 62.9826 12.468 62.8706 12.58C62.7772 12.692 62.6372 12.748 62.4506 12.748H60.9666C60.5746 12.748 60.3319 12.5707 60.2386 12.216C60.1266 11.432 59.6879 10.788 58.9226 10.284C58.1572 9.76133 57.1959 9.5 56.0386 9.5C54.7692 9.5 53.7706 9.74267 53.0426 10.228C52.3146 10.7133 51.9506 11.432 51.9506 12.384C51.9506 13.0187 52.1186 13.5413 52.4546 13.952C52.8092 14.3627 53.3412 14.7267 54.0506 15.044C54.7599 15.3427 55.7959 15.688 57.1586 16.08C58.7452 16.5093 59.9959 16.9573 60.9106 17.424C61.8252 17.872 62.5066 18.4413 62.9546 19.132C63.4026 19.804 63.6266 20.6627 63.6266 21.708C63.6266 23.444 62.9546 24.8067 61.6106 25.796C60.2666 26.7853 58.4559 27.28 56.1786 27.28ZM73.5405 27C73.3539 27 73.1952 26.944 73.0645 26.832C72.9525 26.7013 72.8965 26.5427 72.8965 26.356V8.072C72.8965 7.86667 72.9525 7.708 73.0645 7.596C73.1952 7.46533 73.3539 7.4 73.5405 7.4H74.9685C75.1739 7.4 75.3325 7.46533 75.4445 7.596C75.5752 7.708 75.6405 7.86667 75.6405 8.072V15.8H85.2725V8.072C85.2725 7.86667 85.3285 7.708 85.4405 7.596C85.5712 7.46533 85.7299 7.4 85.9165 7.4H87.3445C87.5499 7.4 87.7085 7.46533 87.8205 7.596C87.9512 7.708 88.0165 7.86667 88.0165 8.072V26.356C88.0165 26.5427 87.9512 26.7013 87.8205 26.832C87.6899 26.944 87.5312 27 87.3445 27H85.9165C85.7299 27 85.5712 26.944 85.4405 26.832C85.3285 26.7013 85.2725 26.5427 85.2725 26.356V18.32H75.6405V26.356C75.6405 26.5427 75.5752 26.7013 75.4445 26.832C75.3139 26.944 75.1552 27 74.9685 27H73.5405ZM99.1288 27C98.9422 27 98.7835 26.944 98.6528 26.832C98.5408 26.7013 98.4848 26.5427 98.4848 26.356V8.072C98.4848 7.86667 98.5408 7.708 98.6528 7.596C98.7835 7.46533 98.9422 7.4 99.1288 7.4H105.961C108.107 7.4 109.787 7.904 111.001 8.912C112.214 9.92 112.821 11.376 112.821 13.28C112.821 14.6987 112.466 15.8653 111.757 16.78C111.066 17.6947 110.086 18.3293 108.817 18.684L113.129 26.132C113.185 26.244 113.213 26.3467 113.213 26.44C113.213 26.5893 113.147 26.72 113.017 26.832C112.905 26.944 112.774 27 112.625 27H111.281C111.001 27 110.777 26.9347 110.609 26.804C110.459 26.6733 110.319 26.4867 110.189 26.244L106.129 19.132H101.229V26.356C101.229 26.5427 101.163 26.7013 101.033 26.832C100.902 26.944 100.743 27 100.557 27H99.1288ZM105.849 16.752C108.63 16.752 110.021 15.5853 110.021 13.252C110.021 10.9187 108.63 9.752 105.849 9.752H101.229V16.752H105.849ZM123.076 27C122.89 27 122.731 26.944 122.6 26.832C122.488 26.7013 122.432 26.5427 122.432 26.356V8.072C122.432 7.86667 122.488 7.708 122.6 7.596C122.731 7.46533 122.89 7.4 123.076 7.4H134.64C134.827 7.4 134.976 7.46533 135.088 7.596C135.219 7.708 135.284 7.86667 135.284 8.072V9.136C135.284 9.32267 135.228 9.48133 135.116 9.612C135.004 9.724 134.846 9.78 134.64 9.78H125.12V15.912H134.024C134.211 15.912 134.36 15.9773 134.472 16.108C134.603 16.22 134.668 16.3787 134.668 16.584V17.62C134.668 17.8067 134.603 17.9653 134.472 18.096C134.36 18.208 134.211 18.264 134.024 18.264H125.12V24.62H134.864C135.07 24.62 135.228 24.676 135.34 24.788C135.452 24.9 135.508 25.0587 135.508 25.264V26.356C135.508 26.5427 135.443 26.7013 135.312 26.832C135.2 26.944 135.051 27 134.864 27H123.076ZM145.657 27C145.47 27 145.312 26.944 145.181 26.832C145.069 26.7013 145.013 26.5427 145.013 26.356V8.072C145.013 7.86667 145.069 7.708 145.181 7.596C145.312 7.46533 145.47 7.4 145.657 7.4H157.221C157.408 7.4 157.557 7.46533 157.669 7.596C157.8 7.708 157.865 7.86667 157.865 8.072V9.136C157.865 9.32267 157.809 9.48133 157.697 9.612C157.585 9.724 157.426 9.78 157.221 9.78H147.701V15.912H156.605C156.792 15.912 156.941 15.9773 157.053 16.108C157.184 16.22 157.249 16.3787 157.249 16.584V17.62C157.249 17.8067 157.184 17.9653 157.053 18.096C156.941 18.208 156.792 18.264 156.605 18.264H147.701V24.62H157.445C157.65 24.62 157.809 24.676 157.921 24.788C158.033 24.9 158.089 25.0587 158.089 25.264V26.356C158.089 26.5427 158.024 26.7013 157.893 26.832C157.781 26.944 157.632 27 157.445 27H145.657Z" fill="#0099FF"/>
<path d="M92.5914 45C92.4981 45 92.4188 44.9673 92.3534 44.902C92.2881 44.8367 92.2554 44.7573 92.2554 44.664V36.922H89.6654C89.5721 36.922 89.4928 36.8893 89.4274 36.824C89.3621 36.7587 89.3294 36.6793 89.3294 36.586V35.55C89.3294 35.4473 89.3574 35.3633 89.4134 35.298C89.4788 35.2327 89.5628 35.2 89.6654 35.2H96.8054C96.9081 35.2 96.9921 35.2327 97.0574 35.298C97.1228 35.3633 97.1554 35.4473 97.1554 35.55V36.586C97.1554 36.6793 97.1228 36.7587 97.0574 36.824C96.9921 36.8893 96.9081 36.922 96.8054 36.922H94.2294V44.664C94.2294 44.7573 94.1968 44.8367 94.1314 44.902C94.0661 44.9673 93.9821 45 93.8794 45H92.5914ZM105.702 45.14C104.442 45.14 103.462 44.818 102.762 44.174C102.062 43.53 101.712 42.5547 101.712 41.248V35.55C101.712 35.4473 101.74 35.3633 101.796 35.298C101.861 35.2327 101.945 35.2 102.048 35.2H103.322C103.425 35.2 103.504 35.2327 103.56 35.298C103.625 35.3633 103.658 35.4473 103.658 35.55V41.248C103.658 41.9947 103.835 42.5593 104.19 42.942C104.545 43.3153 105.049 43.502 105.702 43.502C106.355 43.502 106.855 43.3153 107.2 42.942C107.555 42.5593 107.732 41.9947 107.732 41.248V35.55C107.732 35.4473 107.765 35.3633 107.83 35.298C107.895 35.2327 107.979 35.2 108.082 35.2H109.342C109.445 35.2 109.524 35.2327 109.58 35.298C109.645 35.3633 109.678 35.4473 109.678 35.55V41.248C109.678 42.5547 109.328 43.53 108.628 44.174C107.937 44.818 106.962 45.14 105.702 45.14ZM117.488 45C117.395 45 117.316 44.9673 117.25 44.902C117.185 44.8367 117.152 44.7573 117.152 44.664V36.922H114.562C114.469 36.922 114.39 36.8893 114.324 36.824C114.259 36.7587 114.226 36.6793 114.226 36.586V35.55C114.226 35.4473 114.254 35.3633 114.31 35.298C114.376 35.2327 114.46 35.2 114.562 35.2H121.702C121.805 35.2 121.889 35.2327 121.954 35.298C122.02 35.3633 122.052 35.4473 122.052 35.55V36.586C122.052 36.6793 122.02 36.7587 121.954 36.824C121.889 36.8893 121.805 36.922 121.702 36.922H119.126V44.664C119.126 44.7573 119.094 44.8367 119.028 44.902C118.963 44.9673 118.879 45 118.776 45H117.488ZM130.281 45.14C129.012 45.14 128.023 44.818 127.313 44.174C126.604 43.53 126.231 42.5733 126.193 41.304C126.184 41.0333 126.179 40.6367 126.179 40.114C126.179 39.582 126.184 39.1807 126.193 38.91C126.231 37.6687 126.613 36.7167 127.341 36.054C128.069 35.3913 129.049 35.06 130.281 35.06C131.513 35.06 132.493 35.3913 133.221 36.054C133.959 36.7167 134.346 37.6687 134.383 38.91C134.402 39.4513 134.411 39.8527 134.411 40.114C134.411 40.366 134.402 40.7627 134.383 41.304C134.337 42.5733 133.959 43.53 133.249 44.174C132.54 44.818 131.551 45.14 130.281 45.14ZM130.281 43.53C130.907 43.53 131.406 43.3433 131.779 42.97C132.153 42.5873 132.353 42.0087 132.381 41.234C132.4 40.674 132.409 40.296 132.409 40.1C132.409 39.8853 132.4 39.5073 132.381 38.966C132.353 38.1913 132.153 37.6173 131.779 37.244C131.406 36.8613 130.907 36.67 130.281 36.67C129.665 36.67 129.171 36.8613 128.797 37.244C128.424 37.6173 128.223 38.1913 128.195 38.966C128.186 39.2367 128.181 39.6147 128.181 40.1C128.181 40.576 128.186 40.954 128.195 41.234C128.223 42.0087 128.419 42.5873 128.783 42.97C129.157 43.3433 129.656 43.53 130.281 43.53ZM139.806 45C139.712 45 139.633 44.9673 139.568 44.902C139.502 44.8367 139.47 44.7573 139.47 44.664V35.55C139.47 35.4473 139.498 35.3633 139.554 35.298C139.619 35.2327 139.703 35.2 139.806 35.2H143.432C144.57 35.2 145.462 35.466 146.106 35.998C146.759 36.53 147.086 37.286 147.086 38.266C147.086 38.9473 146.918 39.5213 146.582 39.988C146.255 40.4453 145.798 40.7767 145.21 40.982L147.254 44.552C147.282 44.608 147.296 44.6593 147.296 44.706C147.296 44.79 147.263 44.86 147.198 44.916C147.142 44.972 147.076 45 147.002 45H145.728C145.578 45 145.462 44.9673 145.378 44.902C145.303 44.8367 145.233 44.7433 145.168 44.622L143.362 41.304H141.416V44.664C141.416 44.7573 141.383 44.8367 141.318 44.902C141.262 44.9673 141.182 45 141.08 45H139.806ZM143.39 39.722C143.95 39.722 144.37 39.596 144.65 39.344C144.939 39.092 145.084 38.728 145.084 38.252C145.084 37.776 144.939 37.4073 144.65 37.146C144.37 36.8847 143.95 36.754 143.39 36.754H141.416V39.722H143.39ZM155.512 45.14C154.681 45.14 153.967 45.014 153.37 44.762C152.772 44.51 152.32 44.1787 152.012 43.768C151.704 43.3573 151.54 42.914 151.522 42.438C151.522 42.354 151.55 42.284 151.606 42.228C151.662 42.172 151.732 42.144 151.816 42.144H153.062C153.174 42.144 153.258 42.1673 153.314 42.214C153.379 42.2513 153.44 42.3167 153.496 42.41C153.589 42.7273 153.804 42.9933 154.14 43.208C154.476 43.4227 154.933 43.53 155.512 43.53C156.174 43.53 156.674 43.4227 157.01 43.208C157.346 42.984 157.514 42.676 157.514 42.284C157.514 42.0227 157.425 41.808 157.248 41.64C157.08 41.472 156.823 41.3273 156.478 41.206C156.142 41.0847 155.638 40.9353 154.966 40.758C153.864 40.4967 153.057 40.1513 152.544 39.722C152.04 39.2833 151.788 38.6627 151.788 37.86C151.788 37.3187 151.932 36.838 152.222 36.418C152.52 35.998 152.945 35.6667 153.496 35.424C154.056 35.1813 154.704 35.06 155.442 35.06C156.207 35.06 156.87 35.1953 157.43 35.466C157.99 35.7367 158.414 36.0773 158.704 36.488C159.002 36.8893 159.161 37.2907 159.18 37.692C159.18 37.776 159.152 37.846 159.096 37.902C159.04 37.958 158.97 37.986 158.886 37.986H157.584C157.388 37.986 157.252 37.8973 157.178 37.72C157.122 37.4213 156.935 37.174 156.618 36.978C156.3 36.7727 155.908 36.67 155.442 36.67C154.919 36.67 154.508 36.768 154.21 36.964C153.911 37.16 153.762 37.4447 153.762 37.818C153.762 38.0793 153.836 38.294 153.986 38.462C154.135 38.63 154.368 38.7793 154.686 38.91C155.012 39.0407 155.479 39.1853 156.086 39.344C156.907 39.5307 157.56 39.7407 158.046 39.974C158.54 40.2073 158.904 40.5013 159.138 40.856C159.371 41.2107 159.488 41.6633 159.488 42.214C159.488 42.8113 159.32 43.334 158.984 43.782C158.657 44.2207 158.19 44.5567 157.584 44.79C156.986 45.0233 156.296 45.14 155.512 45.14Z" fill="#0099FF"/>
<path d="M49.428 45C49.3347 45 49.2553 44.9673 49.19 44.902C49.1247 44.8367 49.092 44.7573 49.092 44.664V35.55C49.092 35.4473 49.12 35.3633 49.176 35.298C49.2413 35.2327 49.3253 35.2 49.428 35.2H53.054C54.1927 35.2 55.084 35.466 55.728 35.998C56.3813 36.53 56.708 37.286 56.708 38.266C56.708 38.9473 56.54 39.5213 56.204 39.988C55.8773 40.4453 55.42 40.7767 54.832 40.982L56.876 44.552C56.904 44.608 56.918 44.6593 56.918 44.706C56.918 44.79 56.8853 44.86 56.82 44.916C56.764 44.972 56.6987 45 56.624 45H55.35C55.2007 45 55.084 44.9673 55 44.902C54.9253 44.8367 54.8553 44.7433 54.79 44.622L52.984 41.304H51.038V44.664C51.038 44.7573 51.0053 44.8367 50.94 44.902C50.884 44.9673 50.8047 45 50.702 45H49.428ZM53.012 39.722C53.572 39.722 53.992 39.596 54.272 39.344C54.5613 39.092 54.706 38.728 54.706 38.252C54.706 37.776 54.5613 37.4073 54.272 37.146C53.992 36.8847 53.572 36.754 53.012 36.754H51.038V39.722H53.012ZM65.1339 45.14C64.3033 45.14 63.5893 45.014 62.9919 44.762C62.3946 44.51 61.9419 44.1787 61.6339 43.768C61.3259 43.3573 61.1626 42.914 61.1439 42.438C61.1439 42.354 61.1719 42.284 61.2279 42.228C61.2839 42.172 61.3539 42.144 61.4379 42.144H62.6839C62.7959 42.144 62.8799 42.1673 62.9359 42.214C63.0013 42.2513 63.0619 42.3167 63.1179 42.41C63.2113 42.7273 63.4259 42.9933 63.7619 43.208C64.0979 43.4227 64.5553 43.53 65.1339 43.53C65.7966 43.53 66.2959 43.4227 66.6319 43.208C66.9679 42.984 67.1359 42.676 67.1359 42.284C67.1359 42.0227 67.0473 41.808 66.8699 41.64C66.7019 41.472 66.4453 41.3273 66.0999 41.206C65.7639 41.0847 65.2599 40.9353 64.5879 40.758C63.4866 40.4967 62.6793 40.1513 62.1659 39.722C61.6619 39.2833 61.4099 38.6627 61.4099 37.86C61.4099 37.3187 61.5546 36.838 61.8439 36.418C62.1426 35.998 62.5673 35.6667 63.1179 35.424C63.6779 35.1813 64.3266 35.06 65.0639 35.06C65.8293 35.06 66.4919 35.1953 67.0519 35.466C67.6119 35.7367 68.0366 36.0773 68.3259 36.488C68.6246 36.8893 68.7833 37.2907 68.8019 37.692C68.8019 37.776 68.7739 37.846 68.7179 37.902C68.6619 37.958 68.5919 37.986 68.5079 37.986H67.2059C67.0099 37.986 66.8746 37.8973 66.7999 37.72C66.7439 37.4213 66.5573 37.174 66.2399 36.978C65.9226 36.7727 65.5306 36.67 65.0639 36.67C64.5413 36.67 64.1306 36.768 63.8319 36.964C63.5333 37.16 63.3839 37.4447 63.3839 37.818C63.3839 38.0793 63.4586 38.294 63.6079 38.462C63.7573 38.63 63.9906 38.7793 64.3079 38.91C64.6346 39.0407 65.1013 39.1853 65.7079 39.344C66.5293 39.5307 67.1826 39.7407 67.6679 39.974C68.1626 40.2073 68.5266 40.5013 68.7599 40.856C68.9933 41.2107 69.1099 41.6633 69.1099 42.214C69.1099 42.8113 68.9419 43.334 68.6059 43.782C68.2793 44.2207 67.8126 44.5567 67.2059 44.79C66.6086 45.0233 65.9179 45.14 65.1339 45.14ZM77.7143 45.14C76.4263 45.14 75.4277 44.8087 74.7183 44.146C74.0183 43.4833 73.645 42.55 73.5983 41.346C73.589 41.094 73.5843 40.6833 73.5843 40.114C73.5843 39.5353 73.589 39.1153 73.5983 38.854C73.645 37.6593 74.023 36.7307 74.7323 36.068C75.451 35.396 76.445 35.06 77.7143 35.06C78.545 35.06 79.2683 35.2047 79.8843 35.494C80.5003 35.774 80.9763 36.1613 81.3123 36.656C81.6483 37.1413 81.8257 37.692 81.8443 38.308V38.336C81.8443 38.4107 81.8117 38.476 81.7463 38.532C81.6903 38.5787 81.625 38.602 81.5503 38.602H80.2203C80.1083 38.602 80.0243 38.5787 79.9683 38.532C79.9123 38.4853 79.8657 38.3967 79.8283 38.266C79.679 37.678 79.4317 37.2673 79.0863 37.034C78.741 36.7913 78.279 36.67 77.7003 36.67C76.3563 36.67 75.6563 37.4213 75.6003 38.924C75.591 39.176 75.5863 39.5633 75.5863 40.086C75.5863 40.6087 75.591 41.0053 75.6003 41.276C75.6563 42.7787 76.3563 43.53 77.7003 43.53C78.279 43.53 78.741 43.4087 79.0863 43.166C79.441 42.9233 79.6883 42.5127 79.8283 41.934C79.8563 41.8033 79.8983 41.7147 79.9543 41.668C80.0197 41.6213 80.1083 41.598 80.2203 41.598H81.5503C81.6343 41.598 81.7043 41.626 81.7603 41.682C81.8257 41.738 81.8537 41.808 81.8443 41.892C81.8257 42.508 81.6483 43.0633 81.3123 43.558C80.9763 44.0433 80.5003 44.4307 79.8843 44.72C79.2683 45 78.545 45.14 77.7143 45.14Z" fill="#FF7B00"/>
<path d="M0.411238 38.4514C1.07844 37.5771 1.74995 36.8898 2.68348 36.3747C3.85513 35.7283 5.11371 35.5197 6.43322 35.5648C7.31587 35.5949 7.58968 35.2858 7.76846 34.6945C7.97786 34.0016 8.14394 32.4612 7.69506 31.2984C7.6045 31.0639 7.51575 30.8287 7.41717 30.5702C10.6992 31.2754 17.841 40.6035 18.3502 44.9141C17.8391 44.4268 17.3708 43.8894 16.8352 43.4307C13.8628 40.8845 10.5185 39.1039 6.58358 38.6202C4.66392 38.3841 2.38979 38.6892 0.886353 39.057C0.29535 39.1744 0.713089 39.0918 0 39.2351C0.145672 38.837 0.149074 38.7965 0.411238 38.4514Z" fill="#0099FF"/>
<path d="M18.7527 25.7659C18.5385 26.6461 18.1589 27.5073 18.1563 28.3697C18.1514 29.9278 18.319 31.4931 18.5109 33.0434C18.7683 35.1223 19.1765 37.1833 19.4082 39.2644C19.5966 40.9557 19.3726 42.6446 18.9743 44.3281C18.2385 41.2487 17.029 38.3925 15.2263 35.7905C13.4365 33.2071 11.2542 31.0025 8.71484 29.0014C9.55327 28.6491 10.3143 28.7664 11.0612 28.8354C12.4738 28.9657 13.7149 29.5781 14.9311 30.2597C15.6998 30.6904 15.7364 30.6609 15.8732 29.8097C16.1303 28.2093 17.3684 26.4737 18.7527 25.7659Z" fill="#FF7B00"/>
<path d="M26.578 13.6079C25.3799 15.9038 23.5291 17.1642 20.8852 17.1532C18.3488 17.1427 16.6032 14.5439 17.4577 12.0469C18.1998 9.87874 19.6265 8.18113 21.2078 6.59364C21.8384 5.96077 22.5286 5.38686 23.1535 4.74886C24.4214 3.45463 24.837 1.9261 24.3199 0.168165C24.3056 0.11964 24.3125 0.0648422 24.3088 0.000595093C28.4432 3.29742 28.5564 8.45792 25.3719 12.4036C25.6631 11.3425 25.7931 10.3626 25.4898 9.37981C25.3882 9.05012 25.2786 8.71694 25.1218 8.41128C24.5343 7.26497 23.3985 6.89779 22.2548 7.48666C20.1549 8.56766 19.1608 10.4288 18.9936 12.6592C18.8101 15.1065 21.1442 16.8001 23.8436 15.7614C24.9646 15.3302 25.7841 14.4866 26.578 13.6079Z" fill="#0099FF"/>
<path d="M20.1211 44.2686C20.5803 43.4973 20.921 42.9894 21.4863 42.2983C23.4375 39.9132 25.9151 38.1961 28.6572 36.8417C29.7677 36.2931 30.8906 35.7685 32.0186 35.2566C32.386 35.0898 32.4561 34.9228 32.2655 34.55C31.229 32.5225 30.2152 30.4832 29.1993 28.4452C29.1245 28.2951 29.0449 28.1906 28.9422 28.1082C28.8606 28.0426 28.742 27.9994 28.58 28.0073C28.5456 28.009 28.4878 28.0076 28.3363 28.0448C28.268 28.0615 26.1851 28.7114 26.1851 28.7114C26.128 28.6524 26.1065 28.6167 26.0135 28.497C26.0135 28.497 27.8604 27.5531 28.0237 27.4819C28.4795 27.2833 28.9187 27.0606 29.395 27.014C29.5433 26.9994 29.8243 27.236 29.9252 27.4232C30.599 28.6736 31.2463 29.9384 31.8911 31.2042C32.5362 32.4706 33.1592 33.7483 33.8118 35.0108C34.0094 35.3929 33.9749 35.5698 33.5294 35.7179C31.2233 36.4845 29.0032 37.4508 26.8907 38.6592C24.3881 40.091 23.826 40.3015 20.9682 43.3787" fill="#FF7B00"/>
<path d="M24.4378 27.1702C24.9025 26.9067 25.2499 26.792 25.4108 26.792C25.5502 26.792 25.7127 26.8388 25.7997 26.9993C26.3807 28.0714 26.9437 29.1581 27.5049 30.2458C28.0665 31.3339 28.6129 32.4336 29.1797 33.5176C29.3511 33.8458 29.34 34.0057 29.0314 34.1654C27.4334 34.9921 25.9126 35.9917 24.4879 37.2002C22.8002 38.6319 21.4358 40.4481 20.3053 42.5461C20.234 42.6786 19.7901 43.5727 19.6667 44.0361C19.6364 44.0149 19.874 43.0783 19.9634 42.8317C20.0492 42.5851 20.5327 41.4308 20.8856 40.7797C22.1033 38.5328 23.751 36.8483 25.6169 35.4705C26.3725 34.9125 27.1388 34.3749 27.91 33.8485C28.161 33.6771 28.1985 33.5239 28.0328 33.2036C27.1311 31.4616 26.2448 29.7077 25.3571 27.9552C25.2427 27.7293 25.1504 27.5801 24.8864 27.6571C24.7592 27.6943 21.6791 28.797 20.7247 29.7405C21.5075 28.8077 24.1776 27.2852 24.4378 27.1702Z" fill="#FF7B00"/>
<path d="M22.8956 25.5298C21.7601 24.1988 20.6428 22.8512 19.4772 21.5469C17.8336 19.7076 16.1993 17.867 15.0019 15.6877C13.8782 13.6427 14.1227 11.1767 15.7756 9.51516C16.7861 8.49939 17.9612 7.6471 19.0649 6.72437C19.1261 6.6732 19.2105 6.64993 19.1863 6.66194C18.5633 7.32088 17.8403 8.01286 17.2025 8.77588C15.9423 10.2833 15.3338 12.0383 15.8232 13.9699C16.0575 14.8949 16.6219 15.7614 17.15 16.5815C18.203 18.2175 19.6386 19.5159 21.0014 20.9002C22.4184 22.3397 23.6869 23.8216 23.8894 24.2085C25.1119 26.2027 24.8839 30.698 24.8046 30.3126C24.0385 26.5958 23.672 26.6954 22.8956 25.5298Z" fill="#0099FF"/>
<path d="M34.2505 40.8154C33.7303 42.4585 33.7553 42.5476 35.1767 43.6889C30.0874 43.2204 25.5564 43.7149 20.6094 45.3018C23.0185 43.6292 31.1361 40.3325 34.2505 40.8154Z" fill="#0099FF"/>
<path d="M31.4682 29.3771C31.1714 29.4418 30.3189 29.7796 30.1375 29.7439C30.0052 29.7177 29.7935 29.1654 29.8516 29.1434C29.9242 29.1159 31.8319 28.3564 31.9819 28.2964C32.4823 28.0963 32.6182 28.2201 33.2589 29.0456C33.7406 29.6902 37.0727 35.6757 37.4722 36.3162C37.7637 37.0376 38.2202 37.3886 36.9575 37.6314C34.0831 38.3537 29.6743 39.637 26.8294 40.9203C24.1393 42.1338 22.2783 43.6328 21.0799 44.4584C20.8802 44.5958 20.8154 44.6594 20.5625 44.8203C22.3224 43.2104 23.9826 41.7109 26.1199 40.4476C28.7507 38.8927 31.7349 37.8929 34.7011 36.9365C34.9233 36.8647 35.1417 36.7832 35.3567 36.6947C36.1712 36.3591 36.0425 36.1161 35.771 35.5546C35.6945 35.453 32.541 29.7854 32.426 29.6317C32.1303 29.2363 32.0605 29.231 31.4682 29.3771Z" fill="#FF7B00"/>
<path d="M24.0374 11.7345C23.923 12.6731 23.5058 13.6607 22.4945 14.277C21.4505 14.9132 20.4847 14.373 20.4471 13.156C20.412 12.0212 20.8933 11.1109 21.7504 10.3964C22.203 10.0189 22.7193 9.7964 23.3132 10.0547C23.7889 10.2617 24.0489 10.8206 24.0374 11.7345Z" fill="#FF7B00"/>
<path d="M22.5 19.2642C25.0275 18.6115 26.654 17.0466 27.9431 15.0663C29.2662 13.0338 29.6034 10.8228 29.1053 8.46684C30.2587 10.7953 29.6926 13.0993 28.7527 15.2757C27.658 17.8102 24.971 19.4413 22.5 19.2642Z" fill="#0099FF"/>
<path d="M16.1501 26.313C16.1501 27.5289 15.1642 28.5146 13.9481 28.5146C12.7319 28.5146 11.7461 27.5289 11.7461 26.313C11.7461 25.097 12.7319 24.1112 13.9481 24.1112C15.1642 24.1112 16.1501 25.097 16.1501 26.313Z" fill="#FF7B00"/>
<path d="M6.74954 32.1833C6.74954 33.6057 5.59626 34.7588 4.17356 34.7588C2.75086 34.7588 1.59766 33.6057 1.59766 32.1833C1.59766 30.7608 2.75086 29.6077 4.17356 29.6077C5.59626 29.6077 6.74954 30.7608 6.74954 32.1833Z" fill="#0099FF"/>
<path d="M4.56291 40.8154C5.08316 42.4585 5.05813 42.5476 3.63672 43.6889C8.72601 43.2204 13.257 43.7149 18.2041 45.3018C15.7949 43.6292 7.67735 40.3325 4.56291 40.8154Z" fill="#0099FF"/>
</svg>
